<?xml version="1.0" encoding="utf-8"?>
<!-- Generator: Adobe Illustrator 24.0.0, SVG Export Plug-In . SVG Version: 6.00 Build 0)  -->
<svg version="1.1" id="Layer_1" xmlns="http://www.w3.org/2000/svg" xmlns:xlink="http://www.w3.org/1999/xlink" x="0px" y="0px"
	 viewBox="0 0 864 864" style="enable-background:new 0 0 864 864;" xml:space="preserve">
<style type="text/css">
	.st0{fill:#FBD1DA;}
	.st1{fill:#5DC4F0;}
</style>
<g>
	<g>
		<path d="M550.8,500.2c-14.5,30.2-40.7,43.5-68.5,53.3c8.5,17.7,16.9,35.2,25.5,53.1c0.3-0.1,1.6-0.5,2.8-1.1
			c14.2-6.3,29.7,0,35.5,14.5c6.7,16.5,1.1,40.5-12.2,52.4c-11.2,10.1-27.6,11.6-40.4,3.9c-1.6-1-3.7-1.3-5.6-1.4
			c-7.2-0.2-14.4-0.1-21.5-0.2c-8.5-0.2-16.8-0.2-24.9,4c-7.7,4-15.8,2.8-23-2.9c-1.7-1.3-4.4-1.8-6.6-1.9
			c-10.2-0.3-20.4-0.3-30.5-0.2c-2,0-4.4,0.7-6,1.8c-9.4,6.9-17.9,7.1-28.3,1.4c-4-2.2-8.8-3.6-13.3-3.8
			c-15.1-0.6-30.3-0.6-45.5-0.6c-2.1,0-4.4,0.3-6.2,1.3c-15.3,8.6-32.2,5.6-42.9-7.9c-6.8-8.5-10.4-18.2-11.1-29.1
			c-0.1-2-1.4-4.7-2.9-5.7c-15-10.2-21.1-24.5-19.2-42.3c1.9-18.2,7.6-30.3,22.7-49.5c-8.3-9.3-14-20.1-15.2-32.8
			c-0.5-5.1,1.2-11.5-1.3-15.2c-2.4-3.6-9-4.1-13.4-6.7c-25.6-15.1-40.5-38.5-49.6-65.9c-11.8-35.6-9.4-71.1,2.1-106.4
			c10.8-32.7,27-62.1,52-86.2c29.3-28.4,63.9-44.4,105.4-43.3c46.1,1.2,78.7,37.6,87.3,67.9c6.4,22.7-6,48.8-21.9,60.7
			c-14.1,10.5-30.4,16.5-46.3,23.3c-13.1,5.6-26,12-38.6,18.8c-7.4,4-13.3,10.3-18.4,19.2c7.1-4.7,12.5-8.9,18.6-12.2
			c47.6-25.9,97.7-33.3,150.3-18.7c10,2.8,19.6,6.7,29.4,10c1.7,0.6,3.4,1.4,5.1,1.3c23.5-0.7,44,8.3,63.5,20.2
			c15.5,9.4,30.6,19.6,46.4,28.5c22.4,12.7,47.4,17.3,72.6,20.6c8.9,1.2,17.8,2.7,26.4,4.9c25,6.2,37.4,21,39.4,46.8
			c2.5,32.1-13.4,54.8-39.1,71c-28.7,18.2-57.6,13.1-85.3-3.6c-15.3-9.2-28.6-20.9-40.7-34.1C555.4,505.2,553.4,503.1,550.8,500.2z
			 M213.1,481.6c0.6-2.1,0.9-3,1.2-3.9c0.7-3.2,1.2-6.9,5.6-6.1c4.5,0.8,3.3,4.7,3.2,7.8c-0.3,7.8-1.4,15.5-1,23.3
			c0.8,14,6.4,25.8,18.1,34.2c12.9,9.2,27.3,15.6,42.6,18c18.8,2.9,38.1,5.6,57,5c34.6-1.1,69.3-4,103.8-7.4
			c27.1-2.7,52.8-10.6,75-27.2c15.5-11.5,26.8-25.9,25.3-46.7c-1-14.1-8.5-25.5-17.3-36c-2.1-2.5-4.4-5.4-1.1-8.3
			c3.5-3.2,6,0,7.9,2.3c12.2,14.1,20.4,29.9,20.1,49.2c0,1.9,0.2,4.3,1.3,5.5c16.2,18.3,33.3,35.6,55.4,46.8
			c18.9,9.5,38.5,13.7,58.6,3.9c23.7-11.6,42.2-28.4,44.4-56.4c2.3-29.5-9.7-45.6-36-50.3c-6.5-1.2-12.9-2.8-19.4-3.5
			c-36.1-3.8-69.8-14-100.1-34.6c-12.2-8.3-24.8-16.1-37.7-23.1c-8.7-4.7-30.9-12.3-31.1-11.7c2.6,2.4,8.5,6.8,10.5,9.6
			c1,1.3,1.6,4.1-0.1,5.8c-0.7,0.7-3.7,0.9-5.1,0.2c-2.6-1.3-4.8-3.5-7.3-5.2c-37.9-25.3-80-33.7-124.4-27.6
			c-40.2,5.5-76.5,20.7-103.7,52.7c-1.9,2.3-3.8,4.8-6.2,6.4c-0.2,0.2-0.5,0.3-0.8,0.4c-2.9,1-5.8-1.3-5.8-4.4
			c0-0.6,0.1-1.1,0.3-1.5c1.7-3.1,4.6-5.5,6.9-8.2c1.2-1.5,3.1-3.1,3.3-4.8c3-19.6,15.1-33.1,31.3-42.2
			c14.7-8.3,30.5-14.5,46.1-21.1c14.5-6.2,29-12.2,40.1-24.1c14.2-15.3,19.6-32.8,10.9-52.2c-13.9-31.1-37.9-50-72.2-53.8
			c-29.7-3.3-56.4,6-80.8,22.2c-28.4,18.8-48.2,45.1-62.2,75.8c-16.2,35.4-23.7,72.4-15.8,111.2c6.1,29.6,19.9,55,45.4,72.8
			C203.3,477.1,208.1,479,213.1,481.6z M459.8,665.9c10.6,0,19.9-0.2,29.1,0.1c3,0.1,6.4,0.9,8.9,2.4c9.3,5.8,21.6,5.5,29.3-2.2
			c11.3-11.2,15.4-24.9,11.3-40.5c-1.9-7.1-6.3-12-13.8-13.3c-7.5-1.3-13.3,1.9-17.7,7.7c-2.1,2.8-3.1,6.5-5.2,9.3
			c-0.2,0.3-0.5,0.6-0.9,0.9c-2.4,1.8-6,0.8-7-2c-0.2-0.5-0.2-0.9-0.2-1.4c0.4-3,2.4-5.8,3.4-8.8c0.6-1.9,1.4-4.3,0.9-6.1
			c-4.9-18.9-13.2-36.3-24.7-52c-1-1.4-3.7-2.5-5.4-2.3c-19.6,2.3-39.1,5.9-58.7,7.3c-29.2,2.1-58.5,2.7-87.8,3.9
			c-7.1,0.3-15.8-2.1-21,1.1c-5.8,3.6-8.9,11.9-12.3,18.7c-4.1,8.1-9.5,16.4-2.9,26c1.9,2.8,1.6,6.8-2.5,7.6
			c-1.6,0.3-4.6-2.4-5.6-4.4c-6.7-13.8-20.6-15.9-31-4.6c-13.1,14.3-11.5,37.9,3.3,50.4c7.6,6.4,18.2,8.9,24.8,3.9
			c8-6.1,16.1-3.4,25.1-4.3c8.6-0.8,17.2-0.7,25.7,0.6c2.3,0.3,4.3,0,7.4-0.3c-2-3.5-4.2-6.3-5-9.4c-0.7-2.6-1-7.2,0.5-8.2
			c3.9-2.8,5.4,1.3,7.5,4c4.9,6.4,9.5,13.4,15.7,18.5c8.7,7.2,17.7,4.1,22.1-6.1c0.9-2.2,1.5-4.5,2-6.8c2.6-12.2-0.2-23.7-3.7-35.3
			c-0.1-0.4-0.1-0.8,0-1.2c0.6-3.3,4.6-4.8,7.3-2.8c0.4,0.3,0.7,0.6,0.8,1c1.9,3.9,3.5,8.3,3.7,12.5c0.5,11.4,0.2,22.8,0.2,34.7H411
			c-4.2-15.4-2.7-30.1,1.9-44.6c1.1-3.5,1.4-9.2,7.1-7.4c5.9,1.8,2.4,6.6,1.4,10.1c-3.4,12.1-5.7,24.3-2.1,36.8
			c3.4,11.9,14.4,15.7,24.1,7.9c6-4.8,10.4-11.7,15.8-17.3c0.3-0.3,0.6-0.5,0.9-0.7c3.1-1.8,7.1,0.7,6.8,4.2c0,0.4-0.1,0.7-0.2,1.1
			C465.3,658.2,462.7,661.3,459.8,665.9z M246,599.3c-5.1-10.4-1.7-20.5,4-30.3c1.7-2.9,4-5.7,7.7-3.5c3.8,2.3,1.4,5.2,0.3,8.3
			c-2,5.5-3.8,11.2-4.7,16.9c-0.3,1.9,2.5,5.7,4.5,6.1c5.1,1.2,10.5,1.1,15.2,1.4c5.4-10.6,10.9-21.2,15.7-30.6
			c-17.6-6.8-35.5-13.6-54.3-20.9c-12.7,13.7-20,31.1-19.5,51.3c0.2,10.4,5.3,18.9,13.5,24.3C234.4,614.7,239.9,607.4,246,599.3z"/>
		<path d="M422.7,499.4c0.2,0.7,0.3,1.3,0.3,2c-0.3,7.5-3.7,11.8-9.8,13.1c-3.6,0.8-5.7,2.4-7.5,5.7c-9.1,16.1-22.7,16.9-34,1.9
			c-2.5-3.4-4.8-5.9-9.6-6.7c-8.8-1.4-12.1-12.8-5.8-19.2c1.5-1.6,5.2-2.6,7.1-1.8c3.3,1.4,2.4,4.3,0.5,7c-0.8,1.1-1.5,3.6-1,4
			c1.2,1,3.2,1.8,4.7,1.6c3.7-0.6,7.4-1.5,11-2.7c7.9-2.6,15.6-2.8,23.4,0.3c1.6,0.7,3.5,1.3,5.2,1.2c2-0.1,4.8-0.5,5.8-1.8
			c0.8-1.2,0.2-4.2-0.8-5.8c-1.8-2.8-2.6-5.6,0.7-6.9c1.9-0.7,5.5,0.3,7,1.9C421.4,495.2,422.1,497.8,422.7,499.4z M400.2,514.7
			c-9-5-15.6-2.9-24.2,0.9c5.2,3.3,9,7.6,12.8,7.6C392.3,523.1,395.7,518.3,400.2,514.7z"/>
	</g>
	<ellipse transform="matrix(0.98 -0.1992 0.1992 0.98 -90.3993 110.1954)" class="st0" cx="502.5" cy="504.4" rx="30.4" ry="20.1"/>
	
		<ellipse transform="matrix(0.9957 -9.303340e-02 9.303340e-02 0.9957 -47.5668 27.1183)" class="st0" cx="267.1" cy="523.7" rx="30.4" ry="20.1"/>
	
		<ellipse transform="matrix(0.2174 -0.9761 0.9761 0.2174 -246.1594 660.2809)" class="st1" cx="288.7" cy="483.6" rx="23.5" ry="20.4"/>
	<g>
		<g>
			<path class="st1" d="M499,496.3c-1.1,0-2.3-0.5-3.1-1.4c-3.3-3.6-16-9.2-33.2-9.9c-2.1-0.1-4-1.5-4.6-3.5c-0.7-2,0-4.2,1.6-5.6
				c17.5-14.2,37.9-15.5,38.8-15.6c2.3-0.1,4.3,1.6,4.4,3.9c0.1,2.3-1.6,4.3-3.9,4.4l0,0c-0.2,0-13.5,0.9-26.8,8.7
				c14.4,2,25.6,7.1,29.9,11.9c1.6,1.7,1.4,4.4-0.3,5.9C501,496,500,496.3,499,496.3z"/>
		</g>
	</g>
</g>
</svg>
